<svg width="48" height="48" viewBox="0 0 48 48" fill="none" xmlns="http://www.w3.org/2000/svg">
<g clip-path="url(#clip0_19_12)">
<path d="M18 20C19.1 20 20 19.1 20 18C20 16.9 19.1 16 18 16C16.9 16 16 16.9 16 18C16 19.1 16.9 20 18 20ZM24 32C25.1 32 26 31.1 26 30C26 28.9 25.1 28 24 28C22.9 28 22 28.9 22 30C22 31.1 22.9 32 24 32ZM18 32C19.1 32 20 31.1 20 30C20 28.9 19.1 28 18 28C16.9 28 16 28.9 16 30C16 31.1 16.9 32 18 32ZM18 26C19.1 26 20 25.1 20 24C20 22.9 19.1 22 18 22C16.9 22 16 22.9 16 24C16 25.1 16.9 26 18 26ZM24 26C25.1 26 26 25.1 26 24C26 22.9 25.1 22 24 22C22.9 22 22 22.9 22 24C22 25.1 22.9 26 24 26ZM28 18C28 19.1 28.9 20 30 20C31.1 20 32 19.1 32 18C32 16.9 31.1 16 30 16C28.9 16 28 16.9 28 18ZM24 20C25.1 20 26 19.1 26 18C26 16.9 25.1 16 24 16C22.9 16 22 16.9 22 18C22 19.1 22.9 20 24 20ZM30 26C31.1 26 32 25.1 32 24C32 22.9 31.1 22 30 22C28.9 22 28 22.9 28 24C28 25.1 28.9 26 30 26ZM30 32C31.1 32 32 31.1 32 30C32 28.9 31.1 28 30 28C28.9 28 28 28.9 28 30C28 31.1 28.9 32 30 32Z" fill="#5F6368"/>
</g>
<defs>
<clipPath id="clip0_19_12">
<rect width="16" height="16" fill="white" transform="translate(16 16)"/>
</clipPath>
</defs>
</svg>
